<svg xmlns="http://www.w3.org/2000/svg" id="Layer_1" data-name="Layer 1" viewBox="0 0 500 233"><defs><style>      .cls-1 {        fill: none;        stroke: #fff;        stroke-miterlimit: 10;        stroke-width: .8px;      }      .cls-2 {        fill: #fff;      }    </style></defs><g id="Layer_2" data-name="Layer 2"><g id="Layer_1-2" data-name="Layer 1-2"><path class="cls-2" d="M0,67.14h19.6v101.34H0v-101.34Z"></path><path class="cls-2" d="M43.61,67.14h28.11l24.46,70.35,24.46-70.35h27.65l3.65,101.34h-18.99l-2.89-79.31-28.11,79.31h-12.76l-27.8-79.16-2.58,79.16h-18.84l3.65-101.34Z"></path><path class="cls-2" d="M202.08,66.38h18.69l38.14,102.1h-19.9l-8.2-22.79h-39.2l-8.21,22.79h-19.45l38.14-102.1ZM197.37,129.43h27.5l-13.67-38.29-13.83,38.29Z"></path><path class="cls-2" d="M275.16,144.47s10.94,9.12,25.07,8.81c8.51,0,15.95-3.8,15.95-10.79,0-18.23-45.13-17.63-45.13-48.16,0-15.5,12.76-29.02,34.95-29.02,9.34.19,18.6,1.72,27.5,4.56l-3.19,17.62c-7.63-3.15-15.76-4.9-24.01-5.17-8.66,0-15.5,3.5-15.5,10.03,0,18.38,44.97,16.71,44.97,48.62,0,18.38-15.8,29.32-35.25,29.32-10.91.04-21.63-2.9-31-8.51l5.62-17.32Z"></path><path class="cls-2" d="M385.17,151.83h103.34c2.86-4.53,5.13-9.41,6.74-14.52h-116.82c1.61,5.11,3.88,9.99,6.74,14.52"></path><path class="cls-2" d="M371.56,134.19h118.67c.78-3.05,1.34-6.16,1.66-9.29h-121.98c.32,3.13.87,6.24,1.66,9.29"></path><path class="cls-2" d="M385.86,160.49h90.06c1.59-1.76,3.08-3.61,4.47-5.54h-99c1.39,1.93,2.88,3.78,4.47,5.54"></path><path class="cls-2" d="M436.84,180.27c15.55.02,30.52-5.95,41.79-16.67h-83.59c11.27,10.72,26.24,16.68,41.79,16.67"></path><path class="cls-2" d="M375.45,118.41c0,1.05.05,2.19.11,3.38h122.55c.07-1.2.11-2.33.11-3.38,0-1.62-.11-3.26-.23-4.9h-122.32c-.12,1.63-.23,3.27-.23,4.9"></path><path class="cls-2" d="M387.84,74.26h86.09c-3.05-3.04-6.4-5.76-10.01-8.11h-66.06c-3.61,2.35-6.97,5.06-10.02,8.11"></path><path class="cls-2" d="M436.84,56.51c-9.55.01-18.97,2.27-27.49,6.58h55.01c-8.53-4.32-17.96-6.58-27.52-6.58"></path><path class="cls-2" d="M370.05,110.39h121.68c-.4-3.2-1.05-6.37-1.92-9.48h-117.83c-.88,3.11-1.53,6.28-1.93,9.48"></path><path class="cls-2" d="M390.52,77.43c-5.22,5.88-9.1,12.82-11.37,20.35h115.37c-2.27-7.53-6.15-14.47-11.37-20.35h-92.63"></path><path class="cls-2" d="M2.16,212.87h3.02v19.59h-3.02v-19.59Z"></path><path class="cls-2" d="M9.38,219.41l2.85-.47v2.52c1.33-1.56,3.24-2.52,5.29-2.64,2.09,0,3.52,1.2,3.52,4.05v9.57h-2.9v-8.52c0-1.88-.59-2.58-1.59-2.58-1.65.36-3.14,1.24-4.26,2.5v8.6h-2.91v-13.04Z"></path><path class="cls-2" d="M24.39,229.16c1.08.84,2.39,1.31,3.76,1.35,1.56,0,2.29-.62,2.29-1.47,0-2.38-6.37-2.2-6.37-6.37,0-2.06,1.47-3.85,5.14-3.85,1.3-.03,2.59.22,3.79.73l-.68,2.38c-1-.51-2.11-.79-3.23-.82-1.47,0-2.12.56-2.12,1.32,0,2.32,6.37,2.12,6.37,6.34,0,2.41-1.91,4.02-5.17,4.02-1.55.04-3.08-.37-4.41-1.18l.62-2.47Z"></path><path class="cls-2" d="M36.93,221.38h-1.97v-1.59l2.03-.73v-3.02l2.85-.62v3.76h4.2v2.2h-4.2v6.72c0,1.62.56,2.26,1.53,2.26.99-.15,1.92-.56,2.7-1.18l.73,2.2c-1.18.88-2.61,1.38-4.08,1.41-1.92.19-3.62-1.22-3.81-3.14-.03-.28-.02-.55.02-.83v-7.46Z"></path><path class="cls-2" d="M46.69,214.22c-.02-1.01.78-1.85,1.79-1.88,1.01-.02,1.85.78,1.88,1.79.02,1.01-.78,1.85-1.79,1.88-.02,0-.04,0-.06,0-.98.03-1.79-.74-1.82-1.71,0-.03,0-.05,0-.08ZM47.04,219.18h2.91v13.27h-2.91s0-13.27,0-13.27Z"></path><path class="cls-2" d="M54.5,221.38h-1.97v-1.59l2.03-.73v-3.02l2.85-.62v3.76h4.2v2.2h-4.2v6.72c0,1.62.56,2.26,1.53,2.26.99-.15,1.92-.56,2.7-1.18l.73,2.2c-1.18.88-2.61,1.38-4.08,1.41-1.92.19-3.62-1.22-3.81-3.14-.03-.28-.02-.55.02-.83v-7.46Z"></path><path class="cls-2" d="M64.46,219.18h2.9v8.52c0,1.85.56,2.59,1.65,2.59,1.52-.27,2.92-1.03,3.96-2.17v-8.93h2.91v9.19c.07,1.37.27,2.72.59,4.05l-2.82.27s-.3-1.38-.44-2.35c-1.31,1.48-3.16,2.37-5.14,2.47-2.14,0-3.61-1.15-3.61-3.99v-9.63Z"></path><path class="cls-2" d="M80.49,221.38h-1.97v-1.59l2.03-.73v-3.02l2.85-.62v3.76h4.2v2.2h-4.2v6.72c0,1.62.56,2.26,1.53,2.26.99-.15,1.92-.56,2.7-1.18l.73,2.2c-1.18.88-2.61,1.38-4.08,1.41-1.92.19-3.62-1.22-3.81-3.14-.03-.28-.02-.55.02-.83v-7.46Z"></path><path class="cls-2" d="M96.21,218.83c3.17,0,5.46,2.17,5.46,6.2l-1.67.47-7.25.97c.05,2.22,1.89,3.99,4.11,3.96,1.5-.09,2.93-.67,4.08-1.64l.82,2.11c-1.5,1.25-3.39,1.92-5.35,1.91-3.54.16-6.54-2.57-6.7-6.11-.01-.22,0-.45,0-.67-.31-3.65,2.41-6.87,6.06-7.17.14-.01.28-.02.43-.02ZM92.74,224.52l5.75-.73s-.17-2.7-2.5-2.7c-1.88,0-3,1.5-3.26,3.44h0Z"></path><path class="cls-2" d="M110.13,219.83l2.09-.76v-1.29c0-4.35,2.44-6.78,5.9-6.78,1.36-.01,2.7.38,3.85,1.12l-1.14,2.23c-.81-.56-1.75-.88-2.73-.94-1.56,0-2.97,1.09-2.97,4.2v1.59h3.67v2.2h-3.67v11.07h-2.91v-11.07h-2.09v-1.56Z"></path><path class="cls-2" d="M126.93,218.83c3.6-.14,6.64,2.67,6.78,6.27,0,.15,0,.3,0,.45.19,3.81-2.75,7.06-6.56,7.24-.11,0-.22,0-.34,0-3.66.09-6.7-2.81-6.79-6.47,0-.15,0-.31,0-.46-.18-3.71,2.67-6.86,6.38-7.04.17,0,.35-.01.52,0ZM126.9,230.48c2.23-.12,3.94-2.03,3.82-4.25,0-.1-.01-.2-.03-.3,0-2.35-1.12-4.79-3.82-4.79-2.2.07-3.92,1.91-3.85,4.11,0,.12.01.23.03.35,0,2.47,1.2,4.87,3.85,4.87Z"></path><path class="cls-2" d="M136.57,219.41l2.85-.47v2.67c.74-1.53,2.21-2.58,3.91-2.79.39-.01.79.07,1.14.23l-.59,2.94c-.38-.14-.77-.22-1.18-.24-1.47,0-2.67,1.58-3.23,2.47v8.22h-2.91v-13.04Z"></path><path class="cls-2" d="M154.31,212.87h4.34l5.37,15.07,5.43-15.07h4.32l.7,19.59h-2.94l-.59-16.03-5.9,16.03h-2.11l-5.9-16.15-.5,16.15h-2.94l.71-19.59Z"></path><path class="cls-2" d="M185.09,224.29c0-1.67.12-3.14-2.03-3.14-1.52.1-2.97.63-4.2,1.53l-.76-2.17c1.71-1.11,3.72-1.7,5.76-1.67,3.14,0,4.14,1.29,4.14,4.26v5.61c-.08.84.54,1.59,1.39,1.67.03,0,.05,0,.08,0l-.88,2.29c-1.42.11-2.74-.73-3.26-2.06-.97,1.41-2.58,2.24-4.29,2.2-1.9.2-3.6-1.17-3.8-3.07-.01-.11-.02-.22-.02-.33,0-2.79,2.91-4.46,7.87-5.11ZM185.09,228.46v-2.29c-3.38.5-4.87,1.47-4.87,3.02,0,.94.7,1.32,1.56,1.32,1.35-.18,2.56-.93,3.31-2.06Z"></path><path class="cls-2" d="M192.06,219.41l2.85-.47v2.67c.74-1.53,2.21-2.58,3.91-2.79.39-.01.79.07,1.14.23l-.59,2.94c-.38-.14-.77-.22-1.18-.24-1.47,0-2.67,1.58-3.23,2.47v8.22h-2.91v-13.04Z"></path><path class="cls-2" d="M201.69,214.22c-.03-1.01.78-1.86,1.79-1.88s1.86.78,1.88,1.79-.78,1.86-1.79,1.88c-.02,0-.04,0-.06,0-.98.03-1.79-.74-1.82-1.72,0-.02,0-.05,0-.07ZM202.04,219.18h2.91v13.27h-2.91v-13.27Z"></path><path class="cls-2" d="M208.74,219.41l2.85-.47v2.52c1.33-1.56,3.24-2.52,5.29-2.64,2.09,0,3.53,1.2,3.53,4.05v9.57h-2.91v-8.52c0-1.88-.59-2.58-1.59-2.58-1.65.36-3.14,1.24-4.26,2.5v8.6h-2.91v-13.04Z"></path><path class="cls-2" d="M229.68,218.83c3.17,0,5.46,2.17,5.46,6.2l-1.67.47-7.25.97c.05,2.22,1.89,3.99,4.11,3.96,1.5-.09,2.93-.67,4.08-1.64l.82,2.11c-1.5,1.25-3.39,1.92-5.35,1.91-3.54.16-6.54-2.57-6.7-6.11-.01-.22,0-.45,0-.67-.31-3.65,2.41-6.87,6.06-7.17.14-.01.28-.02.43-.02ZM226.22,224.52l5.75-.73s-.17-2.7-2.5-2.7c-1.88,0-3,1.5-3.26,3.44h0Z"></path><path class="cls-2" d="M251.68,224.29c0-1.67.12-3.14-2.03-3.14-1.52.1-2.97.63-4.2,1.53l-.76-2.17c1.71-1.11,3.72-1.7,5.76-1.67,3.14,0,4.14,1.29,4.14,4.26v5.61c-.08.84.54,1.59,1.39,1.67.03,0,.05,0,.08,0l-.88,2.29c-2.03-.15-2.88-1-3.26-2.06-.97,1.41-2.58,2.24-4.29,2.2-1.9.2-3.6-1.17-3.8-3.07-.01-.11-.02-.22-.02-.33,0-2.79,2.91-4.46,7.87-5.11ZM251.68,228.46v-2.29c-3.38.5-4.87,1.47-4.87,3.02,0,.94.7,1.32,1.56,1.32,1.35-.18,2.56-.93,3.32-2.06Z"></path><path class="cls-2" d="M258.65,219.41l2.85-.47v2.52c1.33-1.56,3.24-2.52,5.29-2.64,2.09,0,3.52,1.2,3.52,4.05v9.57h-2.9v-8.52c0-1.88-.59-2.58-1.59-2.58-1.65.36-3.14,1.24-4.26,2.5v8.6h-2.91v-13.04Z"></path><path class="cls-2" d="M280.21,218.83c.84,0,1.68.14,2.47.44v-7.34l2.91-.47v16.92c.07,1.38.27,2.74.59,4.08l-2.79.21s-.27-1.09-.41-2.03c-.9,1.42-2.49,2.25-4.17,2.17-3.46,0-5.69-2.94-5.69-6.58-.25-3.83,2.66-7.14,6.49-7.39.2-.01.41-.02.61-.01ZM282.67,228.34v-5.46c-.06-1.32-1.12-1.76-2.32-1.76-2.52,0-4.2,1.76-4.2,4.93,0,2.76,1.27,4.43,3.15,4.43,1.4-.13,2.66-.93,3.38-2.14Z"></path><path class="cls-2" d="M301.91,212.72h2.88l7.46,19.73h-3.11l-1.93-5.23h-7.81l-1.91,5.23h-3.03l7.46-19.73ZM300.33,224.7h5.96l-3-8.11-2.96,8.11Z"></path><path class="cls-2" d="M314.25,219.41l2.85-.47v2.52c1.33-1.56,3.24-2.52,5.29-2.64,2.09,0,3.53,1.2,3.53,4.05v9.57h-2.91v-8.52c0-1.88-.59-2.58-1.59-2.58-1.65.36-3.14,1.24-4.26,2.5v8.6h-2.91v-13.04Z"></path><path class="cls-2" d="M330.29,221.38h-1.97v-1.59l2.03-.73v-3.02l2.85-.62v3.76h4.2v2.2h-4.2v6.72c0,1.62.56,2.26,1.53,2.26.99-.15,1.92-.56,2.7-1.18l.73,2.2c-1.18.88-2.61,1.38-4.08,1.41-1.92.19-3.62-1.22-3.81-3.14-.03-.28-.02-.55.02-.83v-7.46Z"></path><path class="cls-2" d="M347.15,224.29c0-1.67.12-3.14-2.03-3.14-1.52.1-2.97.63-4.2,1.53l-.76-2.17c1.71-1.11,3.72-1.7,5.76-1.67,3.14,0,4.14,1.29,4.14,4.26v5.61c-.08.84.54,1.59,1.39,1.67.03,0,.05,0,.08,0l-.88,2.29c-1.42.11-2.74-.73-3.26-2.06-.97,1.41-2.58,2.24-4.29,2.2-1.9.2-3.6-1.17-3.8-3.07-.01-.11-.02-.22-.02-.33,0-2.79,2.91-4.46,7.87-5.11ZM347.15,228.46v-2.29c-3.38.5-4.87,1.47-4.87,3.02,0,.94.7,1.32,1.56,1.32,1.35-.18,2.56-.93,3.31-2.06Z"></path><path class="cls-2" d="M354.11,219.41l2.85-.47v2.67c.74-1.53,2.21-2.58,3.91-2.79.39-.01.79.07,1.14.23l-.59,2.94c-.38-.14-.77-.22-1.18-.24-1.47,0-2.67,1.58-3.23,2.47v8.22h-2.91v-13.04Z"></path><path class="cls-2" d="M369.92,218.83c1.62-.05,3.22.44,4.52,1.41l-1.14,2.17c-.94-.77-2.11-1.2-3.32-1.23-2.31.08-4.13,2.02-4.05,4.33,0,.11.01.22.02.34-.27,2.25,1.33,4.28,3.58,4.55.14.02.28.03.42.03,1.31-.03,2.57-.52,3.55-1.38l.94,2.06c-1.27,1.17-2.97,1.79-4.7,1.7-3.61.16-6.66-2.64-6.81-6.25,0-.19,0-.38,0-.57-.13-3.82,2.86-7.03,6.68-7.16.1,0,.2,0,.31,0Z"></path><path class="cls-2" d="M377.79,221.38h-1.97v-1.59l2.03-.73v-3.02l2.85-.62v3.76h4.2v2.2h-4.2v6.72c0,1.62.56,2.26,1.53,2.26.99-.15,1.92-.56,2.7-1.18l.74,2.2c-1.18.88-2.61,1.37-4.08,1.41-1.92.19-3.62-1.22-3.81-3.14-.03-.28-.02-.55.02-.83v-7.46Z"></path><path class="cls-2" d="M387.54,214.22c-.02-1.01.78-1.85,1.79-1.88,1.01-.02,1.85.78,1.88,1.79.02,1.01-.78,1.85-1.79,1.88-.02,0-.04,0-.06,0-.98.03-1.79-.74-1.82-1.71,0-.03,0-.05,0-.08ZM387.89,219.18h2.91v13.27h-2.91v-13.27Z"></path><path class="cls-2" d="M400.73,218.83c1.62-.05,3.22.44,4.52,1.41l-1.14,2.17c-.94-.77-2.11-1.2-3.32-1.23-2.31.08-4.13,2.02-4.05,4.33,0,.11.01.22.02.34-.27,2.25,1.33,4.28,3.58,4.55.14.02.28.03.42.03,1.31-.03,2.57-.52,3.55-1.38l.94,2.06c-1.27,1.17-2.97,1.79-4.7,1.7-3.61.16-6.66-2.64-6.81-6.25,0-.19,0-.38,0-.57-.13-3.82,2.86-7.03,6.68-7.16.1,0,.2,0,.31,0Z"></path><path class="cls-2" d="M414.74,228.4c1.44,1.09,3.18,1.7,4.99,1.76,1.88,0,3.53-.88,3.53-2.52,0-4.02-9.05-3.85-9.05-9.78,0-2.94,2.38-5.35,6.55-5.35,1.75.04,3.48.33,5.14.88l-.62,2.76c-1.44-.61-2.99-.95-4.55-1-1.94,0-3.47.82-3.47,2.38,0,4.08,9.05,3.67,9.05,9.87,0,3.49-3,5.4-6.61,5.4-2.05,0-4.07-.56-5.82-1.64l.86-2.76Z"></path><path class="cls-2" d="M429.72,221.38h-1.97v-1.59l2.03-.73v-3.02l2.85-.62v3.76h4.2v2.2h-4.2v6.72c0,1.62.56,2.26,1.53,2.26.99-.15,1.91-.56,2.7-1.18l.74,2.2c-1.18.88-2.61,1.37-4.08,1.41-1.92.19-3.62-1.22-3.81-3.14-.03-.28-.02-.55.02-.83v-7.46Z"></path><path class="cls-2" d="M439.68,219.18h2.91v8.52c0,1.85.56,2.59,1.65,2.59,1.52-.27,2.92-1.03,3.96-2.17v-8.93h2.9v9.19c.07,1.37.27,2.72.59,4.05l-2.82.27s-.29-1.38-.44-2.35c-1.31,1.48-3.16,2.37-5.14,2.47-2.14,0-3.61-1.15-3.61-3.99v-9.63Z"></path><path class="cls-2" d="M461.24,218.83c.84,0,1.68.14,2.47.44v-7.34l2.9-.47v16.92c.07,1.38.27,2.74.59,4.08l-2.79.21s-.27-1.09-.41-2.03c-.9,1.42-2.49,2.25-4.17,2.17-3.47,0-5.7-2.94-5.7-6.58-.25-3.83,2.66-7.14,6.5-7.39.2-.01.41-.02.61-.01ZM463.71,228.34v-5.46c-.06-1.32-1.12-1.76-2.32-1.76-2.52,0-4.2,1.76-4.2,4.93,0,2.76,1.26,4.43,3.14,4.43,1.41-.13,2.66-.93,3.38-2.14h0Z"></path><path class="cls-2" d="M470.14,214.22c-.02-1.01.78-1.85,1.79-1.88,1.01-.02,1.85.78,1.88,1.79.02,1.01-.78,1.85-1.79,1.88-.02,0-.04,0-.06,0-.98.03-1.79-.74-1.82-1.71,0-.03,0-.05,0-.08ZM470.49,219.18h2.91v13.27h-2.91v-13.27h0Z"></path><path class="cls-2" d="M482.86,218.83c3.17,0,5.46,2.17,5.46,6.2l-1.67.47-7.25.97c.06,2.22,1.89,3.99,4.11,3.96,1.5-.09,2.94-.67,4.08-1.64l.82,2.11c-1.5,1.25-3.39,1.92-5.35,1.91-3.54.16-6.54-2.57-6.7-6.1-.01-.23,0-.45,0-.68-.31-3.65,2.41-6.86,6.06-7.17.14-.01.29-.02.43-.02ZM479.39,224.52l5.76-.73s-.18-2.7-2.5-2.7c-1.88,0-3,1.5-3.26,3.44h0Z"></path><path class="cls-2" d="M491.03,229.16c1.08.84,2.39,1.31,3.76,1.35,1.55,0,2.29-.62,2.29-1.47,0-2.38-6.37-2.2-6.37-6.37,0-2.06,1.47-3.85,5.14-3.85,1.3-.03,2.59.22,3.79.73l-.67,2.38c-1-.51-2.11-.79-3.23-.82-1.47,0-2.11.56-2.11,1.32,0,2.32,6.37,2.12,6.37,6.34,0,2.41-1.91,4.02-5.17,4.02-1.55.04-3.08-.37-4.4-1.18l.62-2.47Z"></path><line class="cls-1" x1="343.63" y1="11.08" x2="500" y2="11.08"></line><path class="cls-2" d="M2.27,1.91h3.03v9.5c0,2.85,1.53,3.91,3.6,3.91,1.86.13,3.47-1.27,3.6-3.13.02-.23,0-.45-.02-.68V1.91h3.03v9.48c.17,3.42-2.45,6.33-5.87,6.5-.25.01-.51.01-.76,0-3.64,0-6.61-1.69-6.61-6.16V1.91Z"></path><path class="cls-2" d="M22.16,1.91h3.06l7.64,11.06V1.91h2.96v15.69h-3.08l-7.62-10.99v10.99h-2.96V1.91Z"></path><path class="cls-2" d="M42.67,1.91h3.03v15.69h-3.03V1.91Z"></path><path class="cls-2" d="M50.72,1.91h3.22l3.83,11.27,3.83-11.27h3.11l-5.55,15.81h-2.89l-5.56-15.81Z"></path><path class="cls-2" d="M69.74,1.91h9.9v2.54h-6.87v3.93h5.41v2.52h-5.41v4.16h7.03v2.54h-10.07V1.91Z"></path><path class="cls-2" d="M85.62,1.91h5.22c4.04,0,5.78,2.12,5.78,4.68,0,1.85-1.06,3.54-2.73,4.33l4.42,6.68h-3.58l-3.86-5.93h-2.23v5.93h-3.03V1.91ZM90.37,9.16c2.09,0,3.08-.94,3.08-2.42,0-1.29-.78-2.28-3.1-2.28h-1.69v4.7h1.72Z"></path><path class="cls-2" d="M103.22,13.89c1.11.86,2.47,1.34,3.88,1.37,1.32,0,2.47-.59,2.47-1.67,0-2.82-6.99-2.73-6.99-7.46,0-2.4,1.97-4.49,5.41-4.49,1.45.03,2.88.27,4.26.71l-.49,2.73c-1.18-.49-2.44-.76-3.72-.8-1.34,0-2.4.54-2.4,1.55,0,2.85,6.96,2.59,6.96,7.53,0,2.85-2.45,4.54-5.46,4.54-1.69,0-3.35-.45-4.8-1.32l.87-2.68Z"></path><path class="cls-2" d="M118.44,1.91h3.03v15.69h-3.03V1.91Z"></path><path class="cls-2" d="M131.95,4.45h-5.18V1.91h13.34v2.54h-5.15v13.15h-3.01V4.45Z"></path><path class="cls-2" d="M149.11,11.06l-5.67-9.15h3.55l3.62,6.14,3.74-6.14h3.43l-5.64,9.13v6.56h-3.03v-6.54Z"></path><path class="cls-2" d="M192.89,4.45h-5.18V1.91h13.34v2.54h-5.15v13.15h-3.01V4.45Z"></path><path class="cls-2" d="M209.22,1.8h2.89l5.9,15.81h-3.08l-1.27-3.53h-6.07l-1.27,3.53h-3.01l5.91-15.81ZM208.49,11.56h4.26l-2.12-5.93-2.14,5.93Z"></path><path class="cls-2" d="M222.87,13.89c1.11.86,2.47,1.34,3.88,1.37,1.32,0,2.47-.59,2.47-1.67,0-2.82-6.99-2.73-6.99-7.46,0-2.4,1.97-4.49,5.41-4.49,1.45.03,2.88.27,4.26.71l-.49,2.73c-1.18-.49-2.44-.76-3.72-.8-1.34,0-2.4.54-2.4,1.55,0,2.85,6.96,2.59,6.96,7.53,0,2.85-2.45,4.54-5.46,4.54-1.69,0-3.35-.45-4.8-1.32l.87-2.68Z"></path><path class="cls-2" d="M238.4,1.91h4.35l3.79,10.89,3.79-10.89h4.28l.57,15.69h-2.94l-.45-12.28-4.35,12.28h-1.97l-4.31-12.26-.4,12.26h-2.92l.56-15.69Z"></path><path class="cls-2" d="M265.81,1.8h2.9l5.9,15.81h-3.08l-1.27-3.53h-6.07l-1.27,3.53h-3.01l5.9-15.81ZM265.08,11.56h4.26l-2.12-5.93-2.14,5.93Z"></path><path class="cls-2" d="M279.62,1.91h3.06l7.64,11.06V1.91h2.96v15.69h-3.08l-7.62-10.99v10.99h-2.96V1.91Z"></path><path class="cls-2" d="M300.14,1.91h3.03v15.69h-3.03V1.91Z"></path><path class="cls-2" d="M314.1,1.8h2.9l5.9,15.81h-3.08l-1.27-3.53h-6.07l-1.27,3.53h-3.01l5.9-15.81ZM313.37,11.56h4.26l-2.12-5.93-2.14,5.93Z"></path><path class="cls-2" d="M168.92,5.47c1.93-.09,3.56,1.4,3.65,3.33,0,.13,0,.25,0,.38.05,2.99-2.25,5.5-5.23,5.73-1.93.08-3.56-1.43-3.64-3.36,0-.16,0-.32.01-.48-.06-2.97,2.25-5.44,5.21-5.59ZM167.47,13.41c1.92,0,3.09-2.3,3.09-4.14,0-1.31-.52-2.32-1.76-2.32-1.96.29-3.33,2.08-3.11,4.04,0,1.41.53,2.42,1.78,2.42Z"></path><path class="cls-2" d="M174.18,6.16l1.53-.53.06-.4c.32-2.44,1.31-5.05,4.36-5.05.81-.02,1.62.17,2.34.55l-.73,1.47c-.48-.28-1.01-.44-1.57-.46-1.84,0-2.32,1.9-2.64,3.96h2.38l-.34,1.49h-2.26c-.61,4.76-1.31,11.16-5.15,12.17l-.77-1.31c2.52-.77,3.35-4.91,3.85-8.72l.28-2.14h-1.33v-1.03Z"></path></g></g></svg>